<?xml version="1.0" encoding="utf-8"?>
<!-- Generator: Adobe Illustrator 20.1.0, SVG Export Plug-In . SVG Version: 6.00 Build 0)  -->
<svg version="1.1" id="图层_1" xmlns="http://www.w3.org/2000/svg" xmlns:xlink="http://www.w3.org/1999/xlink" x="0px" y="0px"
	 viewBox="0 0 121 305" style="enable-background:new 0 0 121 305;" xml:space="preserve">
<style type="text/css">
	.st0{fill:#F7931E;}
	.st1{font-family:'Georgia-Bold';}
	.st2{font-size:50px;}
</style>
<rect x="0.2" width="120.8" height="305"/>
<text transform="matrix(4.489659e-11 -1 1 4.489659e-11 77.5947 206.5)" class="st0 st1 st2">MUSIC</text>
<path class="st0" d="M58.4,231.9c-3.3-4.1-9.7-4.4-14.2,3.8c-5.4,9.8-13.6,11.2-13.6,11.2h0.5v2.8h0.2v2.1h39.8
	c-0.9,2-1.7,4.4-1.7,7c0,6.9,3.8,12.3,8.6,12.3c4.8,0,9-5.6,9-12.3c0-6.7-3.9-12.3-8.3-12.3v0.6H78l0,0l0,0l-27.4-0.1
	c2.1-1.5,4.6-4.5,7.8-9.6c6.4-10.1,13-3,13-3C69,228.9,63.3,226.9,58.4,231.9z M55.7,235.4c-5,8.6-11.9,10.6-13.4,10.9H39
	c2.1-1.5,4.6-4.4,7.8-9.6c4.1-6.6,8.4-5.8,10.9-4.5C57,233.4,56.4,234.3,55.7,235.4z"/>
</svg>
